HIERARCHY
ROOT Hips
{
	OFFSET -3.958830 18.904000 13.208200
	CHANNELS 6 Xposition Yposition Zposition Zrotation Yrotation Xrotation 
	JOINT LHipJoint
	{
		OFFSET 0.000000 0.000000 0.000000
		CHANNELS 3 Zrotation Yrotation Xrotation
		JOINT LeftUpLeg
		{
			OFFSET 1.800000 -1.400000 0.085000
			CHANNELS 3 Zrotation Yrotation Xrotation
			JOINT LeftLeg
			{
				OFFSET 2.215000 -6.000000 0.000000
				CHANNELS 3 Zrotation Yrotation Xrotation
				JOINT LeftFoot
				{
					OFFSET 2.500000 -6.900000 0.000000
					CHANNELS 3 Zrotation Yrotation Xrotation
					JOINT LeftToeBase
					{
						OFFSET 0.200000 -0.500000 1.950000
						CHANNELS 3 Zrotation Yrotation Xrotation
						End Site
						{
							OFFSET 0.000000 0.000000 0.000000
						}
					}
				}
			}
		}
	}
	JOINT RHipJoint
	{
		OFFSET 0.000000 0.000000 0.000000
		CHANNELS 3 Zrotation Yrotation Xrotation
		JOINT RightUpLeg
		{
			OFFSET -1.800000 -1.400000 0.085000
			CHANNELS 3 Zrotation Yrotation Xrotation
			JOINT RightLeg
			{
				OFFSET -2.215000 -6.000000 0.000000
				CHANNELS 3 Zrotation Yrotation Xrotation
				JOINT RightFoot
				{
					OFFSET -2.500000 -6.900000 0.000000
					CHANNELS 3 Zrotation Yrotation Xrotation
					JOINT RightToeBase
					{
						OFFSET -0.200000 -0.500000 1.950000
						CHANNELS 3 Zrotation Yrotation Xrotation
						End Site
						{
							OFFSET 0.000000 0.000000 0.000000
						}
					}
				}
			}
		}
	}
	JOINT LowerBack
	{
		OFFSET 0.000000 0.000000 0.000000
		CHANNELS 3 Zrotation Yrotation Xrotation
		JOINT Spine
		{
			OFFSET -0.087000 1.940000 -0.288900
			CHANNELS 3 Zrotation Yrotation Xrotation
			JOINT Spine1
			{
				OFFSET 0.000000 1.950000 0.060000
				CHANNELS 3 Zrotation Yrotation Xrotation
				JOINT Neck
				{
					OFFSET 0.000000 0.000000 0.000000
					CHANNELS 3 Zrotation Yrotation Xrotation
					JOINT Neck1
					{
						OFFSET 0.000000 1.600000 0.340000
						CHANNELS 3 Zrotation Yrotation Xrotation
						JOINT Head
						{
							OFFSET 0.000000 1.667000 -0.240000
							CHANNELS 3 Zrotation Yrotation Xrotation
							End Site
							{
								OFFSET 0.000000 0.000000 0.000000
							}
						}
					}
				}
				JOINT LeftShoulder
				{
					OFFSET 0.000000 0.000000 0.000000
					CHANNELS 3 Zrotation Yrotation Xrotation
					JOINT LeftArm
					{
						OFFSET 2.700000 1.550000 -0.730000
						CHANNELS 3 Zrotation Yrotation Xrotation
						JOINT LeftForeArm
						{
							OFFSET 5.450000 0.000000 0.000000
							CHANNELS 3 Zrotation Yrotation Xrotation
							JOINT LeftHand
							{
								OFFSET 3.450000 0.000000 0.000000
								CHANNELS 3 Zrotation Yrotation Xrotation
								JOINT LeftHandIndex1
								{
									OFFSET 0.750000 0.000000 0.000000
									CHANNELS 3 Zrotation Yrotation Xrotation
									End Site
									{
										OFFSET 0.000000 0.000000 0.000000
									}
								}
							}
						}
					}
				}
				JOINT RightShoulder
				{
					OFFSET 0.000000 0.000000 0.000000
					CHANNELS 3 Zrotation Yrotation Xrotation
					JOINT RightArm
					{
						OFFSET -2.700000 1.550000 -0.730000
						CHANNELS 3 Zrotation Yrotation Xrotation
						JOINT RightForeArm
						{
							OFFSET -5.450000 0.000000 0.000000
							CHANNELS 3 Zrotation Yrotation Xrotation
							JOINT RightHand
							{
								OFFSET -3.450000 0.000000 0.000000
								CHANNELS 3 Zrotation Yrotation Xrotation
								JOINT RightHandIndex1
								{
									OFFSET -0.750000 0.000000 0.000000
									CHANNELS 3 Zrotation Yrotation Xrotation
									End Site
									{
										OFFSET 0.000000 0.000000 0.000000
									}
								}
							}
						}
					}
				}
			}
		}
	}
}
MOTION
Frames: 11
Frame Time: 0.016667
0.369200 17.228650 -0.147460 -4.723727 11.834162 8.507328 -15.149075 13.228469 2.201326 0.987862 -1.164939 -9.523136 0.027939 4.094957 14.049657 -0.692731 4.298878 3.547675 0.224520 -0.184820 0.035620 18.527165 -9.605419 3.834882 -0.088474 5.556093 -42.567639 5.221769 -3.409031 13.057311 0.497618 -2.215388 3.791069 0.227970 0.991940 0.348490 -4.164211 -2.596625 -6.961596 17.086442 -9.950755 5.312684 -5.401069 -9.179380 7.454375 0.153817 -0.408630 -4.787534 -2.096216 3.726334 23.800353 -4.362500 3.902650 7.084480 1.731782 8.059790 0.071578 -16.291835 -6.196747 0.682132 64.559121 -73.968330 -42.658324 -4.046862 2.347423 -0.094300 0.860990 -0.698440 0.358810 -1.727495 -12.320592 0.739559 28.525630 -6.995147 -9.111518 -8.714167 54.475803 -3.164966 1.412316 -2.566650 -0.410820 0.243090 0.095780 -0.121580 
0.405070 17.100620 -0.128010 -4.117497 10.047863 8.931247 -15.199649 13.193263 2.207024 1.214219 -1.072192 -8.655529 -1.852098 4.707343 14.273902 -0.666383 4.563413 3.477833 0.231260 -0.154900 0.017800 18.495178 -9.453319 3.854970 -0.273471 5.561782 -41.874918 6.117932 -2.623609 7.646534 0.548166 -1.992899 3.903778 0.272120 1.042800 0.339850 -4.014505 -2.736725 -6.979465 15.515237 -9.249677 4.697120 -4.386370 -8.837928 7.249744 0.072119 -0.046289 -4.383257 -1.558035 3.743627 23.556761 -4.398330 3.861630 7.262150 0.711872 7.423352 -0.508207 -13.843129 -8.571529 1.616457 49.562882 -71.506515 -30.949750 -4.261555 2.992345 -0.133750 0.908530 -0.733050 0.379200 -0.403525 -11.689095 0.542498 25.852527 -6.532871 -8.011295 -9.995296 53.743258 -3.529984 1.392636 -2.568203 -0.431570 0.279930 0.094850 -0.110240 
0.429500 16.976650 -0.119670 -3.275422 7.573418 9.386357 -15.271673 13.133954 2.269250 1.084476 -1.068088 -8.075037 -4.461191 5.497911 14.638668 -0.599641 4.848707 3.365226 0.295870 -0.077160 0.068820 18.446976 -9.256591 3.896693 -0.484333 5.643441 -41.849629 7.008794 -2.172107 4.343782 0.532954 -1.940260 3.902351 0.321500 1.018320 0.362880 -3.806784 -2.944157 -7.036197 13.170303 -8.233896 4.503919 -3.002146 -8.143191 6.909638 -0.035135 0.211487 -3.876045 -1.212669 4.176219 23.584709 -4.470860 4.425270 6.915350 -1.362701 6.618250 -1.219298 -11.091552 -11.117043 2.392348 39.056091 -67.271355 -21.952769 -4.354206 3.314566 -0.157750 0.913780 -0.717030 0.389640 2.034791 -10.615984 0.329457 22.774251 -6.388660 -7.018636 -11.752929 53.525944 -4.140212 1.403846 -2.588122 -0.402390 0.253550 0.056670 -0.111290 
0.473320 16.865100 -0.116250 -2.878267 5.675783 9.637695 -15.290419 13.050983 2.331742 0.683576 -1.057731 -7.740015 -6.445047 6.071735 14.787389 -0.541580 5.076470 3.283660 0.300850 -0.070970 0.055330 18.445830 -9.136555 3.936679 -0.775294 5.722492 -42.210466 8.394292 -2.167166 3.416843 0.526635 -2.005599 3.866515 0.329310 1.038600 0.382350 -3.762130 -3.001915 -7.085651 12.590154 -7.874147 4.669736 -2.566208 -7.880724 6.032190 -0.308932 -0.061335 -3.402112 -1.668439 4.933968 23.350959 -3.953570 4.633560 7.173070 -2.974754 6.402623 -1.657202 -10.426696 -12.918109 2.911107 32.656413 -63.881818 -16.761239 -4.417157 3.456885 -0.181120 0.929510 -0.731360 0.393500 4.232389 -10.006750 -0.090136 21.114455 -5.230708 -6.310101 -14.339513 53.285226 -4.991300 1.417000 -2.567573 -0.390660 0.241050 0.066320 -0.100150 
0.529400 16.772950 -0.102470 -2.630639 4.393843 10.211909 -15.282816 12.957502 2.355524 0.115282 -1.261222 -8.336943 -7.464762 6.459303 15.874835 -0.566718 5.286558 3.216675 0.291540 -0.077620 0.001130 18.475176 -9.045202 4.014815 -1.393111 5.920265 -44.075886 9.906171 -2.717218 5.768447 0.538183 -2.195628 3.790240 0.363570 1.117350 0.393880 -3.807947 -2.977221 -7.071036 12.989489 -7.950707 4.654347 -2.541315 -7.937448 4.799679 -0.761545 -0.658786 -2.724063 -2.543302 5.902463 21.989721 -3.397120 4.555820 7.424180 -4.769407 6.722253 -2.139176 -10.614693 -13.984813 3.456846 28.061673 -62.494536 -13.768232 -4.508766 3.540679 -0.211790 0.985210 -0.791070 0.410280 6.948412 -9.858681 -0.722491 19.838648 -4.247736 -5.741435 -17.052955 53.625771 -6.024060 1.376422 -2.563845 -0.421100 0.268150 0.104690 -0.089120 
0.598800 16.717570 -0.054480 -2.559033 3.163469 10.623294 -15.253386 12.868820 2.376029 -0.527590 -1.448255 -8.791882 -8.138687 6.897596 17.418714 -0.480189 5.503647 3.184432 0.204380 -0.152940 -0.090440 18.518983 -9.023129 4.080290 -1.436125 6.220565 -45.531949 11.152310 -3.527824 9.296848 0.565222 -2.462394 3.721039 0.330990 1.225250 0.379360 -3.908853 -2.856722 -7.056929 14.011067 -8.207358 4.684513 -2.646939 -8.143270 3.261078 -0.980931 -1.034181 -2.132513 -3.037977 6.422381 20.975535 -2.943920 4.536620 9.111450 -6.802570 7.358243 -2.281963 -12.751520 -13.834919 3.657179 26.031057 -63.340337 -12.942172 -4.591412 3.549471 -0.293590 1.051730 -0.867440 0.422360 9.433705 -10.238304 -1.415481 19.793204 -2.895003 -5.338166 -18.635021 53.586021 -6.537539 1.399483 -2.537159 -0.444850 0.298840 0.141080 -0.046370 
0.665310 16.701360 -0.002900 -2.522425 1.126901 10.607203 -15.222824 12.806869 2.447363 -1.165495 -1.606536 -9.010943 -9.142520 7.404012 18.670264 -0.400224 5.697189 3.112296 0.148140 -0.223640 -0.128780 18.551719 -9.009002 4.134988 -1.325537 6.625498 -46.182963 12.539800 -4.665726 13.544007 0.508648 -2.826418 3.594166 0.266900 1.223900 0.363050 -3.990564 -2.805786 -7.119270 14.775273 -8.262612 5.440210 -2.736343 -8.036730 2.372841 -1.128752 -1.636908 -2.238631 -3.973823 7.253214 21.116529 -2.333070 5.031750 9.550940 -7.977983 7.754097 -1.769921 -17.426748 -12.374693 3.036038 26.803156 -65.747911 -14.536162 -4.543004 3.474542 -0.257900 1.024220 -0.860670 0.408310 10.778239 -10.110643 -1.720342 23.007644 -1.452028 -5.950363 -20.034448 53.079094 -6.897878 1.420229 -2.400624 -0.454090 0.298830 0.168890 -0.047080 
0.719920 16.714010 0.059480 -2.233417 -0.882078 10.371799 -15.217434 12.823102 2.579214 -1.895535 -1.797676 -9.272527 -10.158578 7.925137 19.939721 -0.310185 5.862845 3.002866 0.119230 -0.288310 -0.084190 18.541816 -9.024561 4.136035 -0.268746 7.037944 -45.952281 11.782082 -5.417887 17.644989 0.428366 -3.047690 3.485536 0.177820 1.109200 0.371960 -3.966839 -2.891493 -7.244571 14.659708 -8.024619 6.821676 -2.514504 -7.580024 1.371247 -0.809195 -1.683184 -2.463361 -4.086047 6.943921 22.132772 -3.027330 5.898260 9.213860 -9.027338 8.380152 -1.396672 -22.862807 -11.571167 2.633995 23.198135 -69.906205 -14.240617 -4.447354 3.483308 -0.169220 0.941440 -0.781830 0.352730 11.104605 -10.567915 -1.767945 28.406797 -0.835820 -6.958174 -19.430251 51.795348 -6.348028 1.475253 -2.264601 -0.425920 0.231000 0.174410 -0.089020 
0.781790 16.762280 0.102920 -2.256653 -3.189636 9.867940 -15.184162 12.823101 2.710872 -2.342734 -2.198568 -9.938556 -10.796935 8.407413 21.808238 -0.207857 5.989316 2.905636 0.155260 -0.285390 0.047010 18.545948 -9.059401 4.208612 0.537707 7.569311 -45.811430 11.356937 -6.405160 22.461486 0.249283 -3.433868 3.324902 0.097700 0.924050 0.372040 -3.997003 -2.893821 -7.481830 15.230361 -7.797348 9.440252 -2.655364 -6.913121 0.262880 -0.070254 -1.618764 -2.870843 -4.027525 6.136677 23.966940 -4.544370 7.086490 7.203010 -11.380656 8.217767 -1.273184 -26.776989 -10.382993 1.818350 13.785745 -73.367781 -9.648903 -4.305770 3.498036 -0.017820 0.802100 -0.621320 0.314420 11.834748 -10.346591 -1.427393 34.481741 -1.087231 -8.556517 -19.784699 50.589645 -6.385657 1.548825 -2.067917 -0.378390 0.181590 0.114450 -0.146150 
0.850760 16.829870 0.123570 -2.037233 -5.917640 8.265402 -15.160144 12.920498 2.943541 -2.668361 -2.693615 -10.153638 -11.988338 9.180573 24.037807 -0.084351 6.256369 2.714551 0.212020 -0.262330 0.198040 18.507306 -9.158028 4.175935 1.367393 7.666898 -43.932686 10.393905 -7.021194 26.234217 0.059492 -3.687889 3.191492 0.019750 0.665600 0.352710 -3.933587 -3.043679 -7.809692 15.066075 -7.756065 13.924661 -2.666167 -6.172738 -0.820579 0.585202 -2.060073 -3.599926 -5.177623 5.791520 27.655540 -5.699940 8.017600 3.405080 -14.708591 7.111076 -0.967615 -29.579256 -8.570931 0.700337 -1.944175 -77.319693 0.125497 -4.129781 3.523022 0.189150 0.588810 -0.422350 0.239920 13.714839 -8.622707 -0.945614 38.692926 -0.807721 -9.919145 -18.766961 47.166562 -5.678345 1.674015 -1.821922 -0.319050 0.125400 0.068060 -0.223030 
0.915250 16.876660 0.143530 -1.467761 -8.401016 7.313144 -15.176543 12.882795 3.211125 -3.276047 -3.910499 -12.124217 -13.295677 10.226833 27.811473 0.051249 6.757633 2.475095 0.292190 -0.185140 0.310390 18.463864 -9.159657 4.127543 1.290526 7.638487 -42.844534 10.064988 -7.738982 29.640498 -0.126090 -4.082041 3.027127 0.009560 0.495650 0.329480 -3.818141 -3.167643 -8.052046 14.239606 -7.636825 17.530824 -2.125025 -5.518082 -1.524943 0.795446 -2.775291 -3.928503 -6.731962 5.763513 29.833766 -6.427820 8.231320 -0.767170 -17.870829 6.650340 -0.735389 -33.199756 -7.169238 0.184906 -27.708787 -79.941289 19.393444 -4.037885 3.545698 0.333750 0.435580 -0.276880 0.217900 16.411745 -7.180014 -0.990284 41.446013 -0.089354 -10.613800 -16.984674 43.418788 -4.865090 1.769363 -1.652084 -0.281850 0.122150 0.011670 -0.263430 
